<svg xmlns="http://www.w3.org/2000/svg" version="1.1" xmlns:xlink="http://www.w3.org/1999/xlink" width="200" height="200"><svg xmlns="http://www.w3.org/2000/svg" version="1.1" xmlns:xlink="http://www.w3.org/1999/xlink" viewBox="0 0 200 200"><rect width="200" height="200" fill="url('#gradient')"></rect><defs><linearGradient id="SvgjsLinearGradient1001" gradientTransform="rotate(45 0.5 0.5)"><stop offset="0%" stop-color="#ffffff"></stop><stop offset="100%" stop-color="#ffffff"></stop></linearGradient></defs><g><g fill="#1d425b" transform="matrix(10.138613861386139,0,0,10.138613861386139,-0.8803813209628117,171.52858328583216)" stroke="#778ca7" stroke-width="0"><path d="M12.96-14.22L12.96 0L9.55 0L9.55-5.94L4.50-5.94L4.50 0L1.07 0L1.07-14.22L4.50-14.22L4.50-8.57L9.55-8.57L9.55-14.22L12.96-14.22ZM17.01-3.19L17.01-3.19Q17.79-3.19 18.31-2.73Q18.83-2.27 18.83-1.54Q18.83-0.82 18.31-0.36Q17.79 0.11 17.01 0.11L17.01 0.11Q16.22 0.11 15.71-0.36Q15.20-0.83 15.20-1.54Q15.20-2.26 15.71-2.72Q16.22-3.19 17.01-3.19Z"></path></g></g></svg><style>@media (prefers-color-scheme: light) { :root { filter: none; } }
@media (prefers-color-scheme: dark) { :root { filter: none; } }
</style></svg>